<svg width="74.75" height="37.601" viewBox="0 0 74.75 37.601" xmlns="http://www.w3.org/2000/svg"><g id="svgGroup" stroke-linecap="round" fill-rule="evenodd" font-size="9pt" stroke="#000" stroke-width="0.25mm" fill="#000" style="stroke:#000;stroke-width:0.25mm;fill:#000"><path d="M 74.75 34.5 L 71.65 37.5 L 58.2 23.65 L 58.2 37 L 53.7 37 L 53.7 0 L 58.2 0 L 58.2 21.15 L 69.95 10.5 L 72.55 13.35 L 62.5 22.25 L 74.75 34.5 Z M 15.5 37 L 10.75 37 L 10.75 6.2 L 0 6.2 L 0 2 L 26.25 2 L 26.25 6.2 L 15.5 6.2 L 15.5 37 Z M 47.55 25.85 L 29.35 25.85 A 12.044 12.044 0 0 0 29.92 28.362 Q 30.514 30.06 31.621 31.262 A 7.49 7.49 0 0 0 31.9 31.55 A 7.072 7.072 0 0 0 35.712 33.455 A 10.011 10.011 0 0 0 37.45 33.6 A 18.365 18.365 0 0 0 39.587 33.481 A 13.788 13.788 0 0 0 41.5 33.125 Q 43.3 32.65 44.95 31.9 L 46 35.75 A 20.385 20.385 0 0 1 43.833 36.563 A 25.932 25.932 0 0 1 41.95 37.075 A 19.457 19.457 0 0 1 39.404 37.485 A 26.013 26.013 0 0 1 36.9 37.6 A 14.159 14.159 0 0 1 33.027 37.097 A 10.554 10.554 0 0 1 28.025 34.025 Q 25.121 30.855 24.792 25.424 A 23.562 23.562 0 0 1 24.75 24 A 17.679 17.679 0 0 1 25.166 20.089 A 14.42 14.42 0 0 1 26.225 17.025 A 12.321 12.321 0 0 1 28.733 13.484 A 11.444 11.444 0 0 1 30.35 12.175 A 10.524 10.524 0 0 1 35.48 10.439 A 13.103 13.103 0 0 1 36.5 10.4 A 14.277 14.277 0 0 1 39.235 10.648 Q 40.907 10.974 42.242 11.73 A 8.606 8.606 0 0 1 42.725 12.025 Q 45.2 13.65 46.45 16.4 A 14.093 14.093 0 0 1 47.663 21.332 A 16.717 16.717 0 0 1 47.7 22.45 A 37.602 37.602 0 0 1 47.555 25.798 A 34.535 34.535 0 0 1 47.55 25.85 Z M 29.3 22.2 L 43.55 22.2 Q 43.55 18.4 41.65 16.35 A 6.244 6.244 0 0 0 38.17 14.462 A 9.198 9.198 0 0 0 36.4 14.3 A 6.79 6.79 0 0 0 33.844 14.767 A 6.262 6.262 0 0 0 31.6 16.325 Q 30.019 18.01 29.476 20.96 A 16.01 16.01 0 0 0 29.3 22.2 Z" vector-effect="non-scaling-stroke"/></g></svg>